<svg version="1.0" xmlns="http://www.w3.org/2000/svg"
         width="260.000000pt" height="260.000000pt" viewBox="0 0 260.000000 260.000000"
         preserveAspectRatio="xMidYMid meet">

        <g transform="translate(0.000000,260.000000) scale(0.100000,-0.100000)"
           fill="#000000" stroke="none">
            <path d="M1570 2536 c-16 -9 -57 -71 -114 -173 -49 -87 -137 -241 -194 -343
-85 -149 -106 -195 -110 -235 -5 -49 -9 -54 -237 -305 -851 -936 -852 -938
-859 -974 -15 -79 4 -109 172 -278 131 -130 164 -158 200 -168 94 -25 7 -96
1158 951 143 130 151 136 199 141 42 4 105 36 394 199 385 217 386 218 362
301 -30 104 -167 283 -376 494 -210 211 -376 343 -488 386 -56 21 -73 22 -107
4z m135 -134 c210 -131 625 -555 716 -730 18 -37 20 -45 8 -56 -15 -14 -584
-335 -631 -357 -56 -25 -96 3 -320 228 -167 169 -208 216 -218 249 -10 32 -10
46 0 65 21 40 331 592 347 617 16 27 35 24 98 -16z m-191 -1100 l113 -112
-564 -513 c-386 -351 -572 -513 -590 -515 -22 -3 -49 20 -170 141 -122 122
-144 148 -141 170 2 18 162 201 515 590 l513 564 105 -107 c58 -58 156 -157
219 -218z"/>
            <path d="M982 1185 c-43 -19 -138 -109 -174 -164 -85 -134 39 -287 188 -231
47 18 180 160 194 207 16 53 6 104 -27 144 -47 56 -116 72 -181 44z m96 -107
c28 -28 13 -63 -57 -131 -72 -70 -92 -78 -123 -50 -30 27 -21 52 49 124 68 70
103 85 131 57z"/>
        </g>
    </svg>
